<?xml version="1.0" encoding="iso-8859-1"?>
<!-- Generator: Adobe Illustrator 16.0.0, SVG Export Plug-In . SVG Version: 6.00 Build 0)  -->
<!DOCTYPE svg PUBLIC "-//W3C//DTD SVG 1.1//EN" "http://www.w3.org/Graphics/SVG/1.1/DTD/svg11.dtd">
<svg width="30" height="30" version="1.1" id="Layer_151_xA0_Image_1_" xmlns="http://www.w3.org/2000/svg" xmlns:xlink="http://www.w3.org/1999/xlink"
	 x="0px" y="0px" viewBox="0 0 218 163" style="enable-background:new 0 0 218 163;"
	 xml:space="preserve">
<g>
	<path style="fill-rule:evenodd;clip-rule:evenodd;fill:transparent;" d="M73,164c-23.973,0-47.946,0-71.959,0c0-54.244,0-108.489,0-163
		C69.667,1,138.333,1,207,1c-2.552,2.089-5.379,3.92-7.614,6.305C158.717,50.682,118.111,94.119,77.542,137.59
		c-1.209,1.296-1.884,3.09-2.958,4.904c-13.626-14.542-25.919-27.653-38.202-40.773c-6.26-6.688-12.376-13.516-18.804-20.038
		c-3.91-3.967-9.5-3.929-12.958-0.456c-3.451,3.465-3.46,8.326,0.007,12.624c0.625,0.775,1.364,1.459,2.047,2.188
		c19.104,20.429,38.153,40.908,57.375,61.225C66.581,159.938,69.995,161.775,73,164z"/>
	<path style="fill-rule:evenodd;clip-rule:evenodd;fill:transparent;" d="M212,1c2.33,0,4.659,0,6.992,0
		c0.002,54.243,0.002,108.487,0.002,163c-48.327,0-96.66,0-144.994,0c2.501-1.514,5.475-2.576,7.424-4.616
		c11.145-11.665,22.009-23.597,33.037-35.375c32.779-35.015,65.597-69.993,98.383-105.001C220.029,11.336,219.817,7.486,212,1z"/>
	<path style="fill-rule:evenodd;clip-rule:evenodd;fill:#4bca52;"  d="M212,1c7.817,6.486,8.029,10.336,0.844,18.008
		c-32.786,35.008-65.604,69.986-98.383,105.001c-11.027,11.778-21.892,23.71-33.037,35.375c-1.95,2.04-4.923,3.103-7.424,4.616
		c-0.333,0-0.667,0-1,0c-3.005-2.225-6.419-4.063-8.95-6.736c-19.222-20.316-38.271-40.796-57.375-61.225
		c-0.683-0.729-1.421-1.413-2.047-2.188c-3.467-4.298-3.458-9.159-0.007-12.624c3.457-3.473,9.047-3.511,12.958,0.456
		c6.428,6.522,12.543,13.351,18.804,20.038c12.283,13.12,24.576,26.231,38.202,40.773c1.074-1.814,1.749-3.608,2.958-4.904
		c40.569-43.471,81.175-86.908,121.844-130.285C201.621,4.92,204.448,3.089,207,1C208.666,1,210.334,1,212,1z"/>
</g>
</svg>
