<?xml version="1.0" encoding="iso-8859-1"?>
<!-- Generator: Adobe Illustrator 16.0.0, SVG Export Plug-In . SVG Version: 6.00 Build 0)  -->
<!DOCTYPE svg PUBLIC "-//W3C//DTD SVG 1.1//EN" "http://www.w3.org/Graphics/SVG/1.1/DTD/svg11.dtd">
<svg version="1.1" id="Layer_1" xmlns="http://www.w3.org/2000/svg" xmlns:xlink="http://www.w3.org/1999/xlink" x="0px" y="0px"
	 width="91.755px" height="106.256px" viewBox="0 0 91.755 106.256" style="enable-background:new 0 0 91.755 106.256;"
	 xml:space="preserve">
<g>
	<path d="M90.232,48.643c-1.675-6.36-4.68-12.181-8.706-17.146l2.638-2.637c1.87-1.871,1.87-4.905,0-6.773
		c-1.027-1.028-2.395-1.434-3.734-1.334c-1.107,0.079-2.201,0.491-3.038,1.334l-2.637,2.636c-2.797-2.264-5.875-4.173-9.155-5.735
		c-2.961-1.404-6.081-2.524-9.341-3.285c-0.027-0.005-0.063-0.005-0.096-0.012c-1.412-0.329-2.833-0.612-4.298-0.805v-2.458v-0.046
		v-0.402h2.118c3.306,0,5.987-2.681,5.987-5.996C59.971,2.681,57.29,0,53.983,0h-2.118H39.891h-2.482
		c-0.528,0-1.034,0.089-1.528,0.215c0,0-0.003,0.009-0.006,0.009c-2.563,0.678-4.452,2.991-4.452,5.759
		c0,3.314,2.681,5.996,5.986,5.996h2.482v2.907C24.469,16.896,11.497,26.584,4.834,39.963c-1.33,2.666-2.43,5.464-3.219,8.387
		C0.568,52.185,0,56.209,0,60.376c0,19.834,12.61,36.689,30.244,43.09c4.887,1.766,10.137,2.79,15.633,2.79
		c2.29,0,4.538-0.172,6.729-0.503c0.234-0.029,0.457-0.099,0.692-0.139c6.456-1.057,12.479-3.439,17.734-6.895
		c7.258-4.771,13.047-11.535,16.651-19.518c2.593-5.758,4.071-12.108,4.071-18.826C91.755,56.322,91.224,52.391,90.232,48.643z
		 M69.847,84.348c-4.37,4.369-9.724,7.352-15.561,8.848c-2.003,0.501-4.083,0.772-6.179,0.913c-0.299,0.019-0.579,0.071-0.875,0.074
		c-0.455,0.022-0.898,0.092-1.354,0.092c-1.245,0-2.482-0.08-3.704-0.212c-7.654-0.831-14.745-4.19-20.268-9.715
		c-6.403-6.402-9.932-14.919-9.932-23.972c0-0.717,0.061-1.416,0.103-2.123c0.51-8.257,3.931-15.956,9.829-21.852
		c0.734-0.73,1.501-1.416,2.285-2.074l0.005-0.004c6.081-5.074,13.664-7.852,21.682-7.852c1.465,0,2.907,0.101,4.326,0.286
		c4.454,0.576,8.698,2.024,12.545,4.236c0.042,0.025,0.087,0.058,0.126,0.086c2.51,1.461,4.865,3.217,6.973,5.322
		c0.495,0.499,0.944,1.027,1.4,1.549c0.017,0.017,0.033,0.037,0.052,0.057c0.932,1.062,1.764,2.199,2.553,3.353
		c0.502,0.751,1.005,1.507,1.446,2.288c2.723,4.757,4.264,10.115,4.429,15.725c0.012,0.335,0.047,0.661,0.047,1.004
		C79.774,69.429,76.25,77.946,69.847,84.348z"/>
</g>
</svg>
