<?xml version="1.0" encoding="iso-8859-1"?>
<!-- Generator: Adobe Illustrator 16.0.0, SVG Export Plug-In . SVG Version: 6.00 Build 0)  -->
<!DOCTYPE svg PUBLIC "-//W3C//DTD SVG 1.1//EN" "http://www.w3.org/Graphics/SVG/1.1/DTD/svg11.dtd">
<svg version="1.1" id="facebook_2_" xmlns="http://www.w3.org/2000/svg" xmlns:xlink="http://www.w3.org/1999/xlink" x="0px"
	 y="0px" width="9px" height="19px" viewBox="0 0 9 19" style="enable-background:new 0 0 9 19;" xml:space="preserve">
<defs>
	<path id="SVGID_1_" style="enable-background:new    ;" d="M5.544,6.538l0.005-1.536c0-0.801,0.076-1.23,1.227-1.23h1.537v-3.07
		h-2.46c-2.954,0-3.994,1.489-3.994,3.994v1.843H0.017v3.071h1.842v8.908h3.685V9.609h2.46L8.33,6.538H5.544z"/>
</defs>
<clipPath id="SVGID_2_">
	<use xlink:href="#SVGID_1_"  style="overflow:visible;"/>
</clipPath>
<g style="clip-path:url(#SVGID_2_);">
	<path style="fill-rule:evenodd;clip-rule:evenodd;" d="M8.863,19.073c-3.068,0-5.887,0-8.727,0c0-6.285,0-12.57,0-18.928
		c2.913,0,5.85,0,8.727,0C8.863,6.411,8.863,12.745,8.863,19.073z"/>
</g>
</svg>
