<?xml version="1.0" encoding="iso-8859-1"?>
<!-- Generator: Adobe Illustrator 16.0.0, SVG Export Plug-In . SVG Version: 6.00 Build 0)  -->
<!DOCTYPE svg PUBLIC "-//W3C//DTD SVG 1.1//EN" "http://www.w3.org/Graphics/SVG/1.1/DTD/svg11.dtd">
<svg xmlns:xlink="http://www.w3.org/1999/xlink" x="0px" y="0px"
	 width="84.629px" height="97.439px" viewBox="0 0 84.629 97.439" style="enable-background:new 0 0 84.629 97.439;"
	 xml:space="preserve">
<path d="M0,0h84.629v97.439L42.314,81.773L0,97.439V0z M65.63,58.272c-0.783,0-1.654-0.02-2.607-0.058
	c-0.954-0.044-1.652-0.164-2.098-0.378c-0.731-0.335-1.274-0.846-1.626-1.527c-0.354-0.682-0.532-1.603-0.532-2.782
	c0-1.28,0.061-3.943,0.179-8c0.115-4.051,0.177-7.552,0.177-10.505c0-2.795-0.477-5.066-1.432-6.801
	c-0.957-1.742-2.242-3.066-3.861-3.981c-1.699-0.94-3.607-1.564-5.725-1.861c-2.117-0.303-4.445-0.454-6.979-0.454
	c-1.829,0-3.817,0.221-5.959,0.649c-2.144,0.429-4.038,1.035-5.685,1.823c-1.674,0.758-3.092,1.717-4.254,2.884
	c-1.164,1.161-1.744,2.473-1.744,3.937c0,1.697,0.563,3.079,1.69,4.139c1.126,1.054,2.79,1.584,4.992,1.584
	c1.549,0,2.694-0.139,3.441-0.429c0.746-0.29,1.421-0.694,2.025-1.218c0.446-0.392,0.786-0.921,1.022-1.584
	c0.234-0.669,0.354-1.224,0.354-1.665c0-0.997-0.187-2.025-0.552-3.099c-0.367-1.072-0.59-1.867-0.669-2.391
	c0.472-0.341,1.091-0.675,1.862-1.003s1.734-0.492,2.884-0.492c1.28,0,2.313,0.29,3.1,0.864c0.784,0.574,1.358,1.28,1.726,2.12
	c0.339,0.731,0.562,1.634,0.666,2.706c0.105,1.066,0.157,1.931,0.157,2.587v3.761c-1.521,0.731-3.928,1.564-7.228,2.498
	c-3.298,0.928-6.125,1.823-8.48,2.688c-1.23,0.467-2.363,0.979-3.398,1.533c-1.033,0.549-1.943,1.236-2.729,2.082
	c-0.864,0.915-1.531,1.969-2.002,3.154c-0.473,1.193-0.707,2.638-0.707,4.341c0,2.96,1.072,5.332,3.221,7.13
	c2.145,1.792,4.738,2.688,7.775,2.688c2.041,0,3.631-0.145,4.77-0.429c1.139-0.29,2.324-0.726,3.555-1.294
	c0.943-0.447,1.826-0.983,2.65-1.608c0.826-0.631,1.684-1.388,2.573-2.277h0.235c0.547,1.779,1.577,3.142,3.09,4.101
	c1.514,0.953,3.875,1.426,7.084,1.426c1.746,0,3.403-0.208,4.967-0.624c1.566-0.417,2.921-0.877,4.07-1.369V58.272z M46.024,54.032
	c-0.707,0.864-1.525,1.59-2.457,2.177c-0.932,0.593-2.119,0.883-3.563,0.883c-1.364,0-2.511-0.454-3.441-1.369
	c-0.932-0.921-1.397-2.403-1.397-4.441c0-1.546,0.274-2.89,0.827-4.031c0.55-1.136,1.312-2.076,2.281-2.808
	c0.917-0.707,2.098-1.382,3.541-2.025c1.442-0.644,2.899-1.211,4.368-1.71L46.024,54.032z"/>
</svg>
