<?xml version="1.0" encoding="iso-8859-1"?>
<!-- Generator: Adobe Illustrator 16.0.0, SVG Export Plug-In . SVG Version: 6.00 Build 0)  -->
<!DOCTYPE svg PUBLIC "-//W3C//DTD SVG 1.1//EN" "http://www.w3.org/Graphics/SVG/1.1/DTD/svg11.dtd">
<svg version="1.1" id="Vector_Smart_Object_xA0_Image_1_"
	 xmlns="http://www.w3.org/2000/svg" xmlns:xlink="http://www.w3.org/1999/xlink" x="0px" y="0px" width="15px" height="14px"
	 viewBox="0 0 15 14" style="enable-background:new 0 0 15 14;" xml:space="preserve">
<g>
	<path fill="#d22856" d="M14.998,6c0,0.667,0,1.333,0,2c-4.334,2-8.666,4-13,6
		c-0.667-0.167-1.911-0.318-1.916-0.502c-0.109-4.331-0.109-8.665,0-12.996C0.088,0.318,1.332,0.167,1.999,0
		C6.332,2,10.664,4,14.998,6z"/>
	<path style="fill-rule:evenodd;clip-rule:evenodd;fill:#FFFFFF;" d="M14.998,6c-4.334-2-8.666-4-13-6c4.333,0,8.666,0,13,0
		C14.998,2,14.998,4,14.998,6z"/>
	<path style="fill-rule:evenodd;clip-rule:evenodd;fill:#FFFFFF;" d="M1.999,14c4.333-2,8.666-4,13-6c0,2,0,4,0,6
		C10.664,14,6.332,14,1.999,14z"/>
</g>
</svg>
