<?xml version="1.0" encoding="iso-8859-1"?>
<!-- Generator: Adobe Illustrator 16.0.0, SVG Export Plug-In . SVG Version: 6.00 Build 0)  -->
<!DOCTYPE svg PUBLIC "-//W3C//DTD SVG 1.1//EN" "http://www.w3.org/Graphics/SVG/1.1/DTD/svg11.dtd">
<svg version="1.1" id="Layer_152_xA0_Image_1_" xmlns="http://www.w3.org/2000/svg" xmlns:xlink="http://www.w3.org/1999/xlink"
	 x="0px" y="0px" width="191px" height="191px" viewBox="0 0 191 191" style="enable-background:new 0 0 191 191;"
	 xml:space="preserve">
<g>
	<path style="fill-rule:evenodd;clip-rule:evenodd;fill:#FFFFFF;" d="M192,184c0,2.667,0,5.333,0,8c-63.666,0-127.333,0-191,0
		C1,128.333,1,64.667,1,1c60.333,0,120.666,0,181,0c-3.021,2.222-6.376,4.104-9.009,6.717
		c-24.134,23.948-48.141,48.024-72.192,72.056c-1.258,1.257-2.586,2.444-3.989,3.766c-5.615-5.345-10.954-10.273-16.119-15.377
		c-9.629-9.512-19.161-19.121-28.725-28.698c-3.972-3.979-7.938-7.963-11.877-11.974C32.456,19.72,24.97,11.801,17.17,4.203
		C13.435,0.564,8.638,0.891,5.224,4.3c-4.005,3.998-4.381,8.018-0.568,12.263c3.979,4.431,8.349,8.51,12.561,12.729
		c7.809,7.821,15.625,15.635,23.441,23.448c8.901,8.899,17.749,17.853,26.73,26.67c5.635,5.532,11.473,10.858,17.926,16.943
		c-2.363,1.885-3.925,2.904-5.217,4.194c-24.186,24.133-48.342,48.296-72.491,72.466c-1.291,1.291-2.617,2.593-3.665,4.074
		c-2.851,4.031-2.409,8.427,1.015,11.751c3.012,2.923,7.689,3.109,11.41,0.313c1.455-1.094,2.746-2.419,4.039-3.711
		c24.402-24.388,48.794-48.785,73.188-73.182c1.732-1.732,3.178-4.09,6.016-1.214c9.866,9.997,19.871,19.857,29.756,29.836
		c15.011,15.151,29.935,30.388,44.957,45.526C181.449,193.59,187.298,192.733,192,184z"/>
	<path style="fill-rule:evenodd;clip-rule:evenodd;" d="M192,184c-4.702,8.733-10.551,9.59-17.68,2.407
		c-15.022-15.139-29.946-30.375-44.957-45.526c-9.885-9.979-19.89-19.839-29.756-29.836c-2.838-2.876-4.283-0.519-6.016,1.214
		c-24.394,24.396-48.786,48.794-73.188,73.182c-1.293,1.292-2.584,2.617-4.039,3.711c-3.721,2.797-8.398,2.61-11.41-0.313
		c-3.424-3.324-3.866-7.72-1.015-11.751c1.048-1.481,2.374-2.783,3.665-4.074c24.149-24.17,48.305-48.333,72.491-72.466
		c1.292-1.29,2.854-2.31,5.217-4.194c-6.453-6.085-12.291-11.411-17.926-16.943c-8.981-8.817-17.829-17.771-26.73-26.67
		c-7.816-7.813-15.632-15.627-23.441-23.448c-4.212-4.22-8.582-8.299-12.561-12.729C0.843,12.317,1.219,8.298,5.224,4.3
		c3.415-3.409,8.211-3.735,11.947-0.097c7.8,7.598,15.286,15.517,22.918,23.286c3.939,4.011,7.905,7.995,11.877,11.974
		c9.563,9.577,19.096,19.187,28.725,28.698c5.166,5.104,10.504,10.032,16.119,15.377c1.403-1.321,2.731-2.509,3.989-3.766
		c24.052-24.031,48.059-48.107,72.192-72.056C175.624,5.104,178.979,3.222,182,1c0.334,0,0.666,0,1,0c4.102,1.428,7.611,3.521,9,8
		c0,1,0,2,0,3c-1.998,2.616-3.732,5.495-6.033,7.81c-24.087,24.228-48.268,48.362-72.412,72.532
		c-1.365,1.366-2.647,2.813-4.098,4.362c1.158,1.254,1.893,2.13,2.709,2.92c5.586,5.398,11.225,10.741,16.773,16.178
		c5.055,4.954,10.024,9.996,15.018,15.014c5.258,5.282,10.491,10.589,15.749,15.871c4.526,4.548,9.2,8.956,13.579,13.641
		C179.631,167.117,185.771,174.1,192,181C192,182,192,183,192,184z"/>
	<path style="fill-rule:evenodd;clip-rule:evenodd;fill:#FFFFFF;" d="M192,181c-6.229-6.9-12.369-13.883-18.715-20.673
		c-4.379-4.685-9.053-9.093-13.579-13.641c-5.258-5.282-10.491-10.589-15.749-15.871c-4.993-5.018-9.963-10.06-15.018-15.014
		c-5.549-5.437-11.188-10.779-16.773-16.178c-0.816-0.79-1.551-1.666-2.709-2.92c1.45-1.549,2.732-2.996,4.098-4.362
		c24.145-24.17,48.325-48.305,72.412-72.532c2.301-2.314,4.035-5.193,6.033-7.81C192,68.333,192,124.667,192,181z"/>
	<path style="fill-rule:evenodd;clip-rule:evenodd;fill:#FFFFFF;" d="M192,9c-1.389-4.479-4.898-6.572-9-8c3,0,6,0,9,0
		C192,3.667,192,6.333,192,9z"/>
</g>
</svg>
