<?xml version="1.0" encoding="iso-8859-1"?>
<!-- Generator: Adobe Illustrator 16.0.0, SVG Export Plug-In . SVG Version: 6.00 Build 0)  -->
<!DOCTYPE svg PUBLIC "-//W3C//DTD SVG 1.1//EN" "http://www.w3.org/Graphics/SVG/1.1/DTD/svg11.dtd">
<svg version="1.1" id="Layer_1" xmlns="http://www.w3.org/2000/svg" xmlns:xlink="http://www.w3.org/1999/xlink" x="0px" y="0px"
	  viewBox="0 0 66.175 85.715" style="enable-background:new 0 0 66.175 85.715;"
	 xml:space="preserve">
<path fill="#d22856"  d="M33.085,0L0,3.692v62.06l33.085,19.87v0.093l33.09-19.963V3.948L33.085,0z M60.952,62.746L33.085,79.539V60.814
	l-2.155-0.967l18.309-8.092v-3.13L27.417,58.27l-3.513-1.577l25.335-11.197v-0.001v-3.129l-28.849,12.75l-3.456-1.551v-0.052
	l32.305-14.276v-3.13L16.935,50.384v-3.129v-0.001L31.766,40.7l-3.513-1.577l-11.318,5.001v-3.13l7.803-3.449l-3.513-1.577
	l-4.29,1.896v-3.129l0.777-0.343l-9.459-4.244l24.833-10.775V5.286l27.867,3.348V62.746z"/>
</svg>
