<?xml version="1.0" encoding="iso-8859-1"?>
<!-- Generator: Adobe Illustrator 16.0.0, SVG Export Plug-In . SVG Version: 6.00 Build 0)  -->
<!DOCTYPE svg PUBLIC "-//W3C//DTD SVG 1.1//EN" "http://www.w3.org/Graphics/SVG/1.1/DTD/svg11.dtd">
<svg version="1.1" id="Layer_1" xmlns="http://www.w3.org/2000/svg" xmlns:xlink="http://www.w3.org/1999/xlink" x="0px" y="0px"
	 width="100px" height="300px" viewBox="0 0 100 300" style="enable-background:new 0 0 100 300;" xml:space="preserve">
<g id="miu">
	<g id="editor_list_view_hambuger_menu_glyph">
		<g>
			<path id="path-1" style="fill:#FFFFFF;" d="M1.002,0C0.448,0,0,0.428,0,1.01v1.98C0,3.548,0.436,4,1.002,4h41.996
				C43.55,4,44,3.572,44,2.99V1.01C44,0.452,43.564,0,42.998,0H1.002z M1.002,10C0.448,10,0,10.428,0,11.01v1.98
				C0,13.546,0.436,14,1.002,14h41.996C43.55,14,44,13.572,44,12.99v-1.98c0-0.558-0.436-1.01-1.002-1.01H1.002z M1.002,20
				C0.448,20,0,20.428,0,21.01v1.98C0,23.546,0.436,24,1.002,24h41.996C43.55,24,44,23.572,44,22.99v-1.98
				c0-0.556-0.436-1.01-1.002-1.01H1.002z"/>
		</g>
		<g>
			<path id="path-1_1_" style="fill:none;" d="M1.002,0C0.448,0,0,0.428,0,1.01v1.98C0,3.548,0.436,4,1.002,4h41.996
				C43.55,4,44,3.572,44,2.99V1.01C44,0.452,43.564,0,42.998,0H1.002z M1.002,10C0.448,10,0,10.428,0,11.01v1.98
				C0,13.546,0.436,14,1.002,14h41.996C43.55,14,44,13.572,44,12.99v-1.98c0-0.558-0.436-1.01-1.002-1.01H1.002z M1.002,20
				C0.448,20,0,20.428,0,21.01v1.98C0,23.546,0.436,24,1.002,24h41.996C43.55,24,44,23.572,44,22.99v-1.98
				c0-0.556-0.436-1.01-1.002-1.01H1.002z"/>
		</g>
	</g>
</g>
<g id="miu_1_">
	<g id="editor_list_view_hambuger_menu_glyph_1_">
		<g>
			<path id="path-1_3_" style="fill:#5E364F;" d="M1.002,32.167C0.448,32.167,0,32.594,0,33.176v1.98c0,0.558,0.436,1.01,1.002,1.01
				h41.996c0.552,0,1.002-0.428,1.002-1.01v-1.98c0-0.558-0.436-1.01-1.002-1.01H1.002z M1.002,42.167
				C0.448,42.167,0,42.594,0,43.176v1.98c0,0.556,0.436,1.01,1.002,1.01h41.996c0.552,0,1.002-0.428,1.002-1.01v-1.98
				c0-0.558-0.436-1.01-1.002-1.01H1.002z M1.002,52.167C0.448,52.167,0,52.594,0,53.176v1.98c0,0.556,0.436,1.01,1.002,1.01h41.996
				c0.552,0,1.002-0.428,1.002-1.01v-1.98c0-0.556-0.436-1.01-1.002-1.01H1.002z"/>
		</g>
		<g>
			<path id="path-1_2_" style="fill:none;" d="M1.002,32.167C0.448,32.167,0,32.594,0,33.176v1.98c0,0.558,0.436,1.01,1.002,1.01
				h41.996c0.552,0,1.002-0.428,1.002-1.01v-1.98c0-0.558-0.436-1.01-1.002-1.01H1.002z M1.002,42.167
				C0.448,42.167,0,42.594,0,43.176v1.98c0,0.556,0.436,1.01,1.002,1.01h41.996c0.552,0,1.002-0.428,1.002-1.01v-1.98
				c0-0.558-0.436-1.01-1.002-1.01H1.002z M1.002,52.167C0.448,52.167,0,52.594,0,53.176v1.98c0,0.556,0.436,1.01,1.002,1.01h41.996
				c0.552,0,1.002-0.428,1.002-1.01v-1.98c0-0.556-0.436-1.01-1.002-1.01H1.002z"/>
		</g>
	</g>
</g>
<g id="miu_2_">
	<g id="editor_list_view_hambuger_menu_glyph_2_">
		<g>
			<path id="path-1_5_" style="fill:#FFFFFF;" d="M1.139,65.895C0.509,65.895,0,66.381,0,67.042v2.25
				c0,0.634,0.496,1.148,1.139,1.148h47.723c0.627,0,1.139-0.486,1.139-1.148v-2.25c0-0.634-0.496-1.147-1.139-1.147H1.139z
				 M1.139,77.259C0.509,77.259,0,77.745,0,78.406v2.25c0,0.632,0.496,1.148,1.139,1.148h47.723c0.627,0,1.139-0.487,1.139-1.148
				v-2.25c0-0.634-0.496-1.147-1.139-1.147H1.139z M1.139,88.622C0.509,88.622,0,89.108,0,89.77v2.25
				c0,0.633,0.496,1.148,1.139,1.148h47.723c0.627,0,1.139-0.486,1.139-1.148v-2.25c0-0.631-0.496-1.147-1.139-1.147H1.139z"/>
		</g>
		<g>
			<path id="path-1_4_" style="fill:none;" d="M1.139,65.895C0.509,65.895,0,66.381,0,67.042v2.25c0,0.634,0.496,1.148,1.139,1.148
				h47.723c0.627,0,1.139-0.486,1.139-1.148v-2.25c0-0.634-0.496-1.147-1.139-1.147H1.139z M1.139,77.259
				C0.509,77.259,0,77.745,0,78.406v2.25c0,0.632,0.496,1.148,1.139,1.148h47.723c0.627,0,1.139-0.487,1.139-1.148v-2.25
				c0-0.634-0.496-1.147-1.139-1.147H1.139z M1.139,88.622C0.509,88.622,0,89.108,0,89.77v2.25c0,0.633,0.496,1.148,1.139,1.148
				h47.723c0.627,0,1.139-0.486,1.139-1.148v-2.25c0-0.631-0.496-1.147-1.139-1.147H1.139z"/>
		</g>
	</g>
</g>
<g id="miu_3_">
	<g id="editor_list_view_hambuger_menu_glyph_3_">
		<g>
			<path id="path-1_7_" style="fill:#5E364F;" d="M1.139,102.625c-0.629,0-1.139,0.486-1.139,1.147v2.25
				c0,0.634,0.496,1.148,1.139,1.148h47.723c0.627,0,1.139-0.486,1.139-1.148v-2.25c0-0.634-0.496-1.147-1.139-1.147H1.139z
				 M1.139,113.989c-0.629,0-1.139,0.486-1.139,1.147v2.25c0,0.632,0.496,1.148,1.139,1.148h47.723c0.627,0,1.139-0.487,1.139-1.148
				v-2.25c0-0.634-0.496-1.147-1.139-1.147H1.139z M1.139,125.353C0.509,125.353,0,125.839,0,126.5v2.25
				c0,0.633,0.496,1.148,1.139,1.148h47.723c0.627,0,1.139-0.486,1.139-1.148v-2.25c0-0.631-0.496-1.147-1.139-1.147H1.139z"/>
		</g>
		<g>
			<path id="path-1_6_" style="fill:none;" d="M1.139,102.625c-0.629,0-1.139,0.486-1.139,1.147v2.25
				c0,0.634,0.496,1.148,1.139,1.148h47.723c0.627,0,1.139-0.486,1.139-1.148v-2.25c0-0.634-0.496-1.147-1.139-1.147H1.139z
				 M1.139,113.989c-0.629,0-1.139,0.486-1.139,1.147v2.25c0,0.632,0.496,1.148,1.139,1.148h47.723c0.627,0,1.139-0.487,1.139-1.148
				v-2.25c0-0.634-0.496-1.147-1.139-1.147H1.139z M1.139,125.353C0.509,125.353,0,125.839,0,126.5v2.25
				c0,0.633,0.496,1.148,1.139,1.148h47.723c0.627,0,1.139-0.486,1.139-1.148v-2.25c0-0.631-0.496-1.147-1.139-1.147H1.139z"/>
		</g>
	</g>
</g>
<rect x="65.773" y="13.015" transform="matrix(-0.7071 0.7071 -0.7071 -0.7071 155.7104 -34.4977)" style="fill:#FFFFFF;" width="38.455" height="3.971"/>
<rect x="65.773" y="13.014" transform="matrix(0.7071 0.7071 -0.7071 0.7071 35.5032 -55.7111)" style="fill:#FFFFFF;" width="38.455" height="3.972"/>
<rect x="65.773" y="56.015" transform="matrix(-0.7071 0.7071 -0.7071 -0.7071 186.1163 38.9076)" style="fill:#5E364F;" width="38.455" height="3.971"/>
<rect x="65.773" y="56.014" transform="matrix(0.7071 0.7071 -0.7071 0.7071 65.909 -43.1164)" style="fill:#5E364F;" width="38.455" height="3.972"/>
<rect x="60.067" y="102.184" transform="matrix(-0.7071 0.7071 -0.7071 -0.7071 214.7292 120.0582)" style="fill:#FFFFFF;" width="44.865" height="4.632"/>
<rect x="60.067" y="102.184" transform="matrix(0.7071 0.7071 -0.7071 0.7071 98.0553 -27.7291)" style="fill:#FFFFFF;" width="44.865" height="4.632"/>
<rect x="60.067" y="154.184" transform="matrix(-0.7071 0.7071 -0.7071 -0.7071 251.4985 208.828)" style="fill:#5E364F;" width="44.865" height="4.632"/>
<rect x="60.067" y="154.184" transform="matrix(0.7071 0.7071 -0.7071 0.7071 134.8246 -12.4989)" style="fill:#5E364F;" width="44.865" height="4.632"/>
<g>
	<path style="fill:none;" d="M25,165.953c0,0.349,0,0.697,0,1.047c-8.333,0-16.667,0-25,0c0-8.334,0-16.667,0-25c7.897,0,15.794,0,23.691,0
		c-0.396,0.291-0.835,0.537-1.18,0.879c-3.158,3.134-6.301,6.286-9.449,9.431c-0.164,0.164-0.338,0.32-0.522,0.493
		c-0.735-0.7-1.434-1.345-2.11-2.013c-1.26-1.245-2.508-2.503-3.76-3.756c-0.52-0.521-1.039-1.042-1.555-1.567
		c-0.999-1.017-1.979-2.054-3-3.048c-0.489-0.477-1.117-0.434-1.564,0.013c-0.524,0.523-0.573,1.049-0.074,1.605
		c0.521,0.58,1.093,1.114,1.644,1.666c1.022,1.024,2.045,2.046,3.068,3.069c1.165,1.165,2.323,2.337,3.499,3.491
		c0.738,0.724,1.502,1.421,2.347,2.217c-0.31,0.247-0.514,0.381-0.683,0.549c-3.166,3.159-6.328,6.322-9.488,9.485
		c-0.169,0.169-0.343,0.339-0.48,0.533c-0.373,0.528-0.315,1.103,0.133,1.538c0.394,0.383,1.006,0.407,1.493,0.041
		c0.19-0.143,0.359-0.316,0.529-0.485c3.194-3.192,6.387-6.386,9.58-9.579c0.227-0.227,0.416-0.535,0.787-0.158
		c1.292,1.309,2.602,2.599,3.896,3.904c1.965,1.983,3.918,3.979,5.884,5.959C23.619,167.208,24.385,167.096,25,165.953z"/>
	<path style="fill:#FF0000;" d="M25,165.953c-0.615,1.143-1.381,1.255-2.314,0.314c-1.966-1.98-3.92-3.976-5.885-5.959
		c-1.293-1.306-2.603-2.596-3.895-3.904c-0.371-0.377-0.56-0.068-0.787,0.158c-3.193,3.193-6.385,6.387-9.58,9.579
		c-0.169,0.169-0.338,0.343-0.528,0.485c-0.487,0.366-1.1,0.342-1.494-0.041c-0.448-0.435-0.506-1.01-0.133-1.537
		c0.137-0.194,0.311-0.365,0.479-0.533c3.161-3.164,6.323-6.327,9.488-9.486c0.169-0.168,0.374-0.302,0.683-0.549
		c-0.845-0.796-1.609-1.493-2.346-2.217c-1.176-1.154-2.334-2.327-3.499-3.491c-1.023-1.022-2.046-2.045-3.068-3.069
		c-0.551-0.552-1.124-1.086-1.644-1.666c-0.499-0.556-0.45-1.082,0.074-1.605c0.447-0.446,1.075-0.489,1.564-0.013
		c1.021,0.994,2.001,2.031,3,3.048c0.516,0.525,1.035,1.046,1.555,1.567c1.252,1.253,2.5,2.511,3.76,3.756
		c0.676,0.668,1.375,1.313,2.11,2.012c0.184-0.172,0.358-0.328,0.522-0.492c3.148-3.146,6.291-6.297,9.449-9.432
		c0.345-0.342,0.784-0.588,1.18-0.879c0.043,0,0.087,0,0.131,0c0.537,0.187,0.996,0.461,1.178,1.047c0,0.131,0,0.262,0,0.393
		c-0.262,0.342-0.488,0.719-0.789,1.022c-3.153,3.171-6.318,6.33-9.479,9.493c-0.179,0.18-0.347,0.369-0.537,0.572
		c0.152,0.164,0.248,0.278,0.355,0.382c0.73,0.706,1.469,1.405,2.195,2.117c0.662,0.648,1.313,1.309,1.966,1.966
		c0.688,0.691,1.373,1.385,2.062,2.076c0.592,0.596,1.203,1.173,1.777,1.786c0.83,0.889,1.634,1.803,2.449,2.706
		C25,165.691,25,165.822,25,165.953z"/>
	<path style="fill:none;" d="M25,165.561c-0.815-0.903-1.619-1.817-2.449-2.706c-0.574-0.613-1.186-1.19-1.777-1.786
		c-0.688-0.691-1.373-1.385-2.062-2.076c-0.653-0.657-1.304-1.317-1.966-1.966c-0.727-0.712-1.465-1.411-2.195-2.118
		c-0.107-0.104-0.203-0.217-0.355-0.382c0.19-0.202,0.358-0.392,0.537-0.571c3.16-3.163,6.325-6.322,9.479-9.493
		c0.301-0.303,0.527-0.68,0.789-1.022C25,150.813,25,158.188,25,165.561z"/>
	<path d="M25,143.047c-0.182-0.586-0.641-0.86-1.178-1.047c0.393,0,0.785,0,1.178,0C25,142.349,25,142.698,25,143.047z"/>
</g>
<g>
	<path style="fill:none;" d="M9.903,201.432c-3.299,0-6.598,0-9.903,0c0-7.465,0-14.93,0-22.432c9.444,0,18.894,0,28.343,0
		c-0.352,0.287-0.74,0.539-1.048,0.867c-5.597,5.97-11.185,11.947-16.768,17.93c-0.167,0.178-0.259,0.426-0.407,0.675
		c-1.875-2.001-3.566-3.806-5.257-5.61c-0.862-0.921-1.703-1.86-2.588-2.758c-0.538-0.546-1.307-0.541-1.783-0.063
		c-0.475,0.477-0.476,1.146,0.001,1.736c0.086,0.107,0.188,0.201,0.282,0.302c2.629,2.812,5.25,5.63,7.896,8.425
		C9.02,200.873,9.489,201.125,9.903,201.432z"/>
	<path style="fill:none;" d="M29.031,179c0.321,0,0.642,0,0.963,0c0,7.465,0,14.93,0,22.432c-6.65,0-13.302,0-19.953,0
		c0.344-0.209,0.753-0.355,1.021-0.636c1.534-1.604,3.029-3.247,4.547-4.868c4.51-4.818,9.027-9.632,13.539-14.449
		C30.136,180.422,30.107,179.893,29.031,179z"/>
	<path style="fill:#4BCA52;" d="M29.031,179c1.076,0.893,1.105,1.422,0.117,2.479c-4.512,4.817-9.029,9.631-13.539,14.449
		c-1.518,1.621-3.013,3.264-4.547,4.868c-0.268,0.28-0.677,0.427-1.021,0.636c-0.046,0-0.092,0-0.138,0
		c-0.414-0.307-0.883-0.56-1.231-0.928c-2.646-2.795-5.267-5.613-7.896-8.425c-0.094-0.101-0.195-0.194-0.282-0.302
		c-0.477-0.591-0.476-1.26-0.001-1.736c0.476-0.479,1.245-0.483,1.783,0.063c0.885,0.897,1.726,1.837,2.588,2.758
		c1.69,1.805,3.382,3.609,5.257,5.61c0.147-0.249,0.241-0.497,0.407-0.675c5.583-5.982,11.171-11.96,16.768-17.93
		c0.308-0.328,0.696-0.58,1.048-0.867C28.572,179,28.802,179,29.031,179z"/>
</g>
<polygon style="fill:#FF0000;stroke:#FF0000;stroke-linejoin:round;" points="50,250 0,300 0,270 20,250 "/>
<text transform="matrix(0.7071 -0.7071 0.7071 0.7071 10.4028 281.8574)" style="fill:#FFFFFF; font-family:'OpenSans'; font-size:14;">H I T</text>
</svg>
