<?xml version="1.0" encoding="iso-8859-1"?><!DOCTYPE svg PUBLIC "-//W3C//DTD SVG 1.1//EN" "http://www.w3.org/Graphics/SVG/1.1/DTD/svg11.dtd"><svg width="50" height="350" viewBox="0 0 50 350" xmlns="http://www.w3.org/2000/svg" xmlns:xlink="http://www.w3.org/1999/xlink"><view id="btn-main-menu__mobile" viewBox="0 0 50 25"/><svg width="50" height="25" viewBox="0 -1 22 13" id="btn-main-menu__mobile-"><path d="M.5 0C.225 0 0 .214 0 .505v.99C0 1.775.218 2 .5 2h21c.275 0 .5-.214.5-.505v-.99c0-.28-.218-.505-.5-.505H.5zm0 5c-.276 0-.5.214-.5.505v.99C0 6.773.218 7 .5 7h21c.275 0 .5-.214.5-.505v-.99c0-.28-.218-.505-.5-.505H.5zm0 5c-.276 0-.5.214-.5.505v.99c0 .278.218.505.5.505h21c.275 0 .5-.214.5-.505v-.99c0-.278-.218-.505-.5-.505H.5z" fill="#fff"/><path d="M.5 0C.225 0 0 .214 0 .505v.99C0 1.775.218 2 .5 2h21c.275 0 .5-.214.5-.505v-.99c0-.28-.218-.505-.5-.505H.5zm0 5c-.276 0-.5.214-.5.505v.99C0 6.773.218 7 .5 7h21c.275 0 .5-.214.5-.505v-.99c0-.28-.218-.505-.5-.505H.5zm0 5c-.276 0-.5.214-.5.505v.99c0 .278.218.505.5.505h21c.275 0 .5-.214.5-.505v-.99c0-.278-.218-.505-.5-.505H.5z" fill="none"/></svg><view id="btn-main-menu__mobile--active" viewBox="0 25 50 25"/><svg width="50" height="25" viewBox="0 -1 22 13" id="btn-main-menu__mobile--active-" y="25"><path d="M.5 0C.225 0 0 .214 0 .505v.99C0 1.775.218 2 .5 2h21c.275 0 .5-.214.5-.505v-.99c0-.28-.218-.505-.5-.505H.5zm0 5c-.276 0-.5.214-.5.505v.99C0 6.773.218 7 .5 7h21c.275 0 .5-.214.5-.505v-.99c0-.28-.218-.505-.5-.505H.5zm0 5c-.276 0-.5.214-.5.505v.99c0 .278.218.505.5.505h21c.275 0 .5-.214.5-.505v-.99c0-.278-.218-.505-.5-.505H.5z" fill="#5e364f"/><path d="M.5 0C.225 0 0 .214 0 .505v.99C0 1.775.218 2 .5 2h21c.275 0 .5-.214.5-.505v-.99c0-.28-.218-.505-.5-.505H.5zm0 5c-.276 0-.5.214-.5.505v.99C0 6.773.218 7 .5 7h21c.275 0 .5-.214.5-.505v-.99c0-.28-.218-.505-.5-.505H.5zm0 5c-.276 0-.5.214-.5.505v.99c0 .278.218.505.5.505h21c.275 0 .5-.214.5-.505v-.99c0-.278-.218-.505-.5-.505H.5z" fill="none"/></svg><view id="btn-main-menu__tablet" viewBox="0 50 50 29"/><svg width="50" height="29" viewBox="0 -1 22 13" id="btn-main-menu__tablet-" y="50"><path d="M.5 0C.225 0 0 .214 0 .505v.99C0 1.775.218 2 .5 2h21c.275 0 .5-.214.5-.505v-.99c0-.28-.218-.505-.5-.505H.5zm0 5c-.276 0-.5.214-.5.505v.99C0 6.773.218 7 .5 7h21c.275 0 .5-.214.5-.505v-.99c0-.28-.218-.505-.5-.505H.5zm0 5c-.276 0-.5.214-.5.505v.99c0 .278.218.505.5.505h21c.275 0 .5-.214.5-.505v-.99c0-.278-.218-.505-.5-.505H.5z" fill="#FFF"/><path d="M.5 0C.225 0 0 .214 0 .505v.99C0 1.775.218 2 .5 2h21c.275 0 .5-.214.5-.505v-.99c0-.28-.218-.505-.5-.505H.5zm0 5c-.276 0-.5.214-.5.505v.99C0 6.773.218 7 .5 7h21c.275 0 .5-.214.5-.505v-.99c0-.28-.218-.505-.5-.505H.5zm0 5c-.276 0-.5.214-.5.505v.99c0 .278.218.505.5.505h21c.275 0 .5-.214.5-.505v-.99c0-.278-.218-.505-.5-.505H.5z" fill="none"/></svg><view id="btn-main-menu__tablet--active" viewBox="0 79 50 29"/><svg width="50" height="29" viewBox="0 -1 22 13" id="btn-main-menu__tablet--active-" y="79"><path d="M.5 0C.225 0 0 .214 0 .505v.99C0 1.775.218 2 .5 2h21c.275 0 .5-.214.5-.505v-.99c0-.28-.218-.505-.5-.505H.5zm0 5c-.276 0-.5.214-.5.505v.99C0 6.773.218 7 .5 7h21c.275 0 .5-.214.5-.505v-.99c0-.28-.218-.505-.5-.505H.5zm0 5c-.276 0-.5.214-.5.505v.99c0 .278.218.505.5.505h21c.275 0 .5-.214.5-.505v-.99c0-.278-.218-.505-.5-.505H.5z" fill="#5e364f"/><path d="M.5 0C.225 0 0 .214 0 .505v.99C0 1.775.218 2 .5 2h21c.275 0 .5-.214.5-.505v-.99c0-.28-.218-.505-.5-.505H.5zm0 5c-.276 0-.5.214-.5.505v.99C0 6.773.218 7 .5 7h21c.275 0 .5-.214.5-.505v-.99c0-.28-.218-.505-.5-.505H.5zm0 5c-.276 0-.5.214-.5.505v.99c0 .278.218.505.5.505h21c.275 0 .5-.214.5-.505v-.99c0-.278-.218-.505-.5-.505H.5z" fill="none"/></svg><view id="icon-close__mobile" viewBox="0 108 30 31"/><svg width="30" height="31" viewBox="0 -1 30.85 31.85" id="icon-close__mobile-" y="108"><path fill="#FFF" d="M0 27.96L27.96 0l2.886 2.887-27.96 27.96z"/><path fill="#FFF" d="M27.96 30.846L0 2.886 2.887 0l27.96 27.96z"/></svg><view id="icon-close__mobile--active" viewBox="0 139 30 31"/><svg width="30" height="31" viewBox="0 -1 30.85 31.85" id="icon-close__mobile--active-" y="139"><path fill="#5e364f" d="M0 27.96L27.96 0l2.886 2.887-27.96 27.96z"/><path fill="#5e364f" d="M27.96 30.846L0 2.886 2.887 0l27.96 27.96z"/></svg><view id="icon-close__tablet" viewBox="0 170 35 36"/><svg width="35" height="36" viewBox="0 -1 30.85 31.85" id="icon-close__tablet-" y="170"><path fill="#FFF" d="M0 27.96L27.96 0l2.886 2.887-27.96 27.96z"/><path fill="#FFF" d="M27.96 30.846L0 2.886 2.887 0l27.96 27.96z"/></svg><view id="icon-close__tablet--active" viewBox="0 206 35 36"/><svg width="35" height="36" viewBox="0 -1 30.85 31.85" id="icon-close__tablet--active-" y="206"><path fill="#5e364f" d="M0 27.96L27.96 0l2.886 2.887-27.96 27.96z"/><path fill="#5e364f" d="M27.96 30.846L0 2.886 2.887 0l27.96 27.96z"/></svg><view id="icon-no" viewBox="0 242 25 26"/><svg width="25" height="26" viewBox="0 -1 191 192" id="icon-no-" y="242"><g fill-rule="evenodd" clip-rule="evenodd"><path d="M192 184v8H1V1h181c-3.02 2.222-6.376 4.104-9.01 6.717-24.133 23.948-48.14 48.024-72.19 72.056-1.26 1.257-2.587 2.444-3.99 3.766-5.615-5.346-10.954-10.274-16.12-15.378-9.628-9.512-19.16-19.12-28.724-28.698-3.972-3.98-7.938-7.963-11.877-11.974-7.634-7.77-15.12-15.69-22.92-23.287C13.435.563 8.638.89 5.224 4.3 1.22 8.298.844 12.318 4.656 16.563c3.98 4.43 8.35 8.51 12.56 12.73 7.81 7.82 15.626 15.634 23.442 23.447 8.9 8.9 17.75 17.853 26.73 26.67 5.635 5.532 11.473 10.858 17.926 16.943-2.363 1.885-3.925 2.904-5.217 4.194-24.186 24.133-48.342 48.296-72.49 72.466-1.292 1.29-2.618 2.593-3.666 4.074-2.85 4.03-2.408 8.427 1.016 11.75 3.012 2.924 7.69 3.11 11.41.314 1.455-1.093 2.746-2.418 4.04-3.71 24.4-24.388 48.793-48.785 73.187-73.182 1.732-1.732 3.178-4.09 6.016-1.214 9.865 9.997 19.87 19.857 29.755 29.836 15.01 15.15 29.935 30.388 44.957 45.526 7.127 7.184 12.976 6.327 17.678-2.406z" fill="transparent"/><path d="M192 184c-4.702 8.733-10.55 9.59-17.68 2.407-15.022-15.14-29.946-30.375-44.957-45.526-9.885-9.978-19.89-19.838-29.756-29.835-2.838-2.876-4.283-.52-6.016 1.214-24.393 24.395-48.785 48.793-73.187 73.18-1.293 1.293-2.584 2.618-4.04 3.712-3.72 2.797-8.397 2.61-11.41-.313-3.423-3.325-3.865-7.72-1.014-11.752 1.047-1.48 2.373-2.783 3.664-4.074 24.15-24.17 48.305-48.333 72.49-72.466 1.293-1.29 2.855-2.31 5.218-4.194-6.453-6.085-12.29-11.41-17.926-16.943-8.98-8.816-17.83-17.77-26.73-26.67-7.816-7.812-15.632-15.626-23.44-23.447-4.213-4.22-8.583-8.3-12.562-12.73C.844 12.318 1.22 8.3 5.224 4.3 8.64.89 13.434.565 17.17 4.203 24.97 11.8 32.458 19.72 40.09 27.49c3.938 4.01 7.904 7.994 11.876 11.973C61.53 49.04 71.062 58.65 80.69 68.16c5.167 5.105 10.505 10.033 16.12 15.378 1.403-1.32 2.73-2.51 3.99-3.766 24.05-24.03 48.058-48.107 72.19-72.056C175.625 5.104 178.98 3.222 182 1h1c4.102 1.428 7.61 3.52 9 8v3c-1.998 2.616-3.732 5.495-6.033 7.81-24.087 24.228-48.268 48.362-72.412 72.532-1.365 1.366-2.647 2.813-4.098 4.362 1.158 1.254 1.893 2.13 2.71 2.92 5.585 5.398 11.224 10.74 16.772 16.178 5.054 4.954 10.023 9.996 15.017 15.014 5.258 5.282 10.49 10.59 15.75 15.87 4.525 4.55 9.2 8.957 13.578 13.642C179.63 167.118 185.77 174.1 192 181v3z" fill="red"/><path d="M192 181c-6.23-6.9-12.37-13.883-18.715-20.673-4.38-4.685-9.053-9.093-13.58-13.64-5.257-5.283-10.49-10.59-15.748-15.872-4.993-5.018-9.963-10.06-15.018-15.014-5.55-5.436-11.19-10.778-16.774-16.177-.816-.79-1.55-1.666-2.71-2.92 1.45-1.55 2.733-2.996 4.1-4.362 24.144-24.17 48.324-48.304 72.41-72.53 2.302-2.315 4.036-5.194 6.034-7.81v169zM192 9c-1.39-4.48-4.898-6.572-9-8h9v8z" fill="transparent"/></g></svg><view id="icon-yes" viewBox="0 268 30 31"/><svg width="30" height="31" viewBox="0 -1 218 164" id="icon-yes-" y="268"><g fill-rule="evenodd" clip-rule="evenodd"><path d="M73 164H1.04V1H207c-2.552 2.09-5.38 3.92-7.614 6.305C158.716 50.682 118.11 94.12 77.542 137.59c-1.21 1.296-1.884 3.09-2.958 4.904-13.626-14.542-25.92-27.653-38.202-40.773-6.26-6.687-12.376-13.515-18.804-20.037-3.91-3.967-9.5-3.93-12.958-.456-3.45 3.465-3.46 8.326.007 12.624.625.776 1.364 1.46 2.047 2.19 19.104 20.428 38.153 40.907 57.375 61.224 2.53 2.674 5.945 4.51 8.95 6.736zM212 1h6.992c.002 54.243.002 108.487.002 163H74c2.5-1.514 5.475-2.576 7.424-4.616 11.145-11.665 22.01-23.597 33.037-35.375 32.78-35.016 65.598-69.994 98.384-105.002C220.03 11.336 219.817 7.486 212 1z" fill="transparent"/><path d="M212 1c7.817 6.486 8.03 10.336.844 18.008-32.786 35.008-65.604 69.986-98.383 105-11.026 11.78-21.89 23.71-33.036 35.376-1.95 2.04-4.923 3.103-7.424 4.616h-1c-3.005-2.225-6.42-4.063-8.95-6.736-19.222-20.316-38.27-40.796-57.375-61.225-.683-.73-1.42-1.414-2.047-2.19-3.467-4.297-3.458-9.158-.007-12.623 3.458-3.473 9.048-3.51 12.96.456 6.427 6.522 12.542 13.35 18.803 20.038 12.283 13.12 24.576 26.232 38.202 40.774 1.074-1.814 1.75-3.608 2.958-4.904 40.57-43.47 81.175-86.908 121.844-130.285C201.62 4.92 204.447 3.09 207 1h5z" fill="#4bca52"/></g></svg><view id="shit" viewBox="0 299 50 51"/><svg width="50" height="51" viewBox="0 -1 50 51" id="shit-" y="299"><path fill="red" stroke="red" stroke-linejoin="round" d="M50 0L0 50V20L20 0z"/><text transform="rotate(-45)" x="-18" y="29" fill="#fff" font-size="14" font-family="Open Sans">H I T</text></svg></svg>